<svg width="10" height="10" viewBox="0 0 10 10" fill="none" xmlns="http://www.w3.org/2000/svg">
<path d="M9.06584 1.99469C9.35874 1.70179 9.35874 1.22692 9.06584 0.934025C8.77295 0.641132 8.29808 0.641132 8.00518 0.934025L4.99999 3.93922L1.99479 0.934026C1.70189 0.641133 1.22702 0.641132 0.934126 0.934026C0.641233 1.22692 0.641233 1.70179 0.934126 1.99469L3.93932 4.99989L0.934117 8.00509C0.641224 8.29799 0.641224 8.77286 0.934117 9.06575C1.22701 9.35865 1.70188 9.35865 1.99478 9.06575L4.99999 6.06054L8.00519 9.06575C8.29809 9.35865 8.77296 9.35865 9.06585 9.06575C9.35875 8.77286 9.35875 8.29799 9.06585 8.00509L6.06065 4.99989L9.06584 1.99469Z" fill="#595959"/>
</svg>
